<svg xmlns="http://www.w3.org/2000/svg" viewBox="0 0 64 64">
  <rect width="64" height="64" rx="10" fill="#B91C1C"/>
  <rect x="3" y="7" width="58" height="3" rx="1.5" fill="white" opacity="0.5"/>
  <rect x="3"  y="12" width="7" height="13" rx="2" fill="white"/>
  <rect x="12" y="12" width="7" height="13" rx="2" fill="white"/>
  <rect x="21" y="12" width="7" height="13" rx="2" fill="white"/>
  <rect x="3"  y="27" width="7" height="13" rx="2" fill="white"/>
  <rect x="12" y="27" width="7" height="13" rx="2" fill="white"/>
  <rect x="21" y="27" width="7" height="13" rx="2" fill="white"/>
  <line x1="32"   y1="23"   x2="32"   y2="29"   stroke="white" stroke-width="1.8" stroke-linecap="round"/>
  <line x1="29.4" y1="27.5" x2="34.6" y2="24.5" stroke="white" stroke-width="1.8" stroke-linecap="round"/>
  <line x1="29.4" y1="24.5" x2="34.6" y2="27.5" stroke="white" stroke-width="1.8" stroke-linecap="round"/>
  <rect x="36" y="12" width="7" height="13" rx="2" fill="white"/>
  <rect x="45" y="12" width="7" height="13" rx="2" fill="white"/>
  <rect x="54" y="12" width="7" height="13" rx="2" fill="white"/>
  <rect x="36" y="27" width="7" height="13" rx="2" fill="white"/>
  <rect x="45" y="27" width="7" height="13" rx="2" fill="white"/>
  <rect x="54" y="27" width="7" height="13" rx="2" fill="white"/>
  <rect x="11" y="45" width="9" height="12" rx="2" fill="white"/>
  <rect x="22" y="45" width="9" height="12" rx="2" fill="white"/>
  <rect x="33" y="45" width="9" height="12" rx="2" fill="white"/>
  <rect x="44" y="45" width="9" height="12" rx="2" fill="white"/>
</svg>
