<svg xmlns="http://www.w3.org/2000/svg" viewBox="0 0 64 64">
  <!-- Background -->
  <rect width="64" height="64" rx="10" fill="#1D48CC"/>

  <!-- Number bar (thin strip, like the number row on a steno machine) -->
  <rect x="5" y="6" width="54" height="3" rx="1.5" fill="white" opacity="0.5"/>

  <!-- Left consonant bank, row 1 -->
  <rect x="5" y="11" width="9" height="13" rx="2" fill="white"/>
  <rect x="16" y="11" width="9" height="13" rx="2" fill="white"/>
  <!-- Left consonant bank, row 2 -->
  <rect x="5" y="26" width="9" height="13" rx="2" fill="white"/>
  <rect x="16" y="26" width="9" height="13" rx="2" fill="white"/>

  <!-- Center asterisk key (3 crossing lines, no font rendering artifacts) -->
  <line x1="32" y1="27" x2="32" y2="39" stroke="white" stroke-width="2.2" stroke-linecap="round"/>
  <line x1="26.2" y1="36" x2="37.8" y2="30" stroke="white" stroke-width="2.2" stroke-linecap="round"/>
  <line x1="26.2" y1="30" x2="37.8" y2="36" stroke="white" stroke-width="2.2" stroke-linecap="round"/>

  <!-- Right consonant bank, row 1 -->
  <rect x="39" y="11" width="9" height="13" rx="2" fill="white"/>
  <rect x="50" y="11" width="9" height="13" rx="2" fill="white"/>
  <!-- Right consonant bank, row 2 -->
  <rect x="39" y="26" width="9" height="13" rx="2" fill="white"/>
  <rect x="50" y="26" width="9" height="13" rx="2" fill="white"/>

  <!-- Vowel keys (A O E U), bottom center -->
  <rect x="11" y="44" width="9" height="12" rx="2" fill="white"/>
  <rect x="22" y="44" width="9" height="12" rx="2" fill="white"/>
  <rect x="33" y="44" width="9" height="12" rx="2" fill="white"/>
  <rect x="44" y="44" width="9" height="12" rx="2" fill="white"/>
</svg>
